<svg width="540" height="150" xmlns="http://www.w3.org/2000/svg" xmlns:xlink="http://www.w3.org/1999/xlink" xml:space="preserve" overflow="hidden"><defs><clipPath id="clip0"><rect x="91" y="285" width="540" height="150"/></clipPath></defs><g clip-path="url(#clip0)" transform="translate(-91 -285)"><path d="M23.4572-39.4156C24.034-41.7872 24.2903-41.9152 26.7899-41.9152L35.1216-41.9152C42.3638-41.9152 42.3638-35.7626 42.3638-35.1858 42.3638-29.9943 37.1726-23.3931 28.7126-23.3931L19.4835-23.3931 23.4572-39.4156ZM34.2885-22.8803C41.2744-24.1622 47.6194-29.0329 47.6194-34.9293 47.6194-39.9284 43.1971-43.774 35.9547-43.774L15.3817-43.774C14.164-43.774 13.5872-43.774 13.5872-42.5561 13.5872-41.9152 14.164-41.9152 15.1254-41.9152 19.0349-41.9152 19.0349-41.4024 19.0349-40.6976 19.0349-40.5693 19.0349-40.1848 18.7786-39.2235L10.1263-4.7427C9.5495-2.49953 9.42133-1.85863 4.93497-1.85863 3.71726-1.85863 3.07635-1.85863 3.07635-0.704998 3.07635 0 3.46089 0 4.7427 0L26.7258 0C36.5316 0 44.0943-7.43451 44.0943-13.9077 44.0943-19.1631 39.4797-22.3676 34.2885-22.8803ZM25.1876-1.85863 16.5354-1.85863C15.6381-1.85863 15.5099-1.85863 15.1254-1.92272 14.4204-1.98681 14.3563-2.11499 14.3563-2.62772 14.3563-3.07635 14.4845-3.46089 14.6127-4.0377L19.099-22.1112 31.148-22.1112C38.7108-22.1112 38.7108-15.0613 38.7108-14.5486 38.7108-8.39586 33.1348-1.85863 25.1876-1.85863Z" transform="matrix(1 0 0 1.00575 91.0002 388.067)"/><path d="M32.2376-42.8765C32.3017-43.133 32.4297-43.5175 32.4297-43.8379 32.4297-44.4788 31.789-44.4788 31.6607-44.4788 31.5966-44.4788 28.4563-44.2226 28.1357-44.1585 27.0461-44.0943 26.0848-43.9661 24.9312-43.902 23.329-43.774 22.8803-43.7099 22.8803-42.5561 22.8803-41.9152 23.3931-41.9152 24.2903-41.9152 27.4309-41.9152 27.4947-41.3383 27.4947-40.6976 27.4947-40.3131 27.3668-39.8004 27.3026-39.608L23.3931-24.034C22.6881-25.7003 20.9576-28.264 17.6249-28.264 10.3827-28.264 2.56362-18.9067 2.56362-9.42133 2.56362-3.07635 6.28088 0.640907 10.639 0.640907 14.164 0.640907 17.1763-2.11499 18.9708-4.22999 19.6117-0.448633 22.624 0.640907 24.5467 0.640907 26.4695 0.640907 28.0075-0.512724 29.1612-2.81999 30.1867-4.99907 31.0839-8.90859 31.0839-9.16496 31.0839-9.4854 30.8276-9.74177 30.4432-9.74177 29.8663-9.74177 29.8022-9.42133 29.5457-8.45996 28.5843-4.67863 27.3668-0.640907 24.739-0.640907 22.8803-0.640907 22.7522-2.30726 22.7522-3.58906 22.7522-3.84543 22.7522-5.19134 23.2008-6.98588L32.2376-42.8765ZM19.2913-7.62678C18.9708-6.53724 18.9708-6.40905 18.0736-5.19134 16.6635-3.39679 13.8436-0.640907 10.8313-0.640907 8.20359-0.640907 6.72951-3.01225 6.72951-6.79361 6.72951-10.3186 8.71632-17.4967 9.93403-20.1885 12.1131-24.6749 15.1254-26.982 17.6249-26.982 21.8549-26.982 22.6881-21.7267 22.6881-21.214 22.6881-21.1499 22.4958-20.3167 22.4317-20.1885L19.2913-7.62678Z" transform="matrix(1 0 0 1.00575 146.381 344.46)"/><path d="M17.9511-34.5668C17.9511-35.6887 17.8977-35.7419 16.936-35.7419L1.06852-10.4715 1.06852-9.08243 14.8524-9.08243 14.8524-3.84667C14.8524-1.92334 14.7456-1.38908 11.0058-1.38908L9.99066-1.38908 9.99066 0C11.7003-0.106852 14.5853-0.106852 16.4018-0.106852 18.2183-0.106852 21.1033-0.106852 22.8129 0L22.8129-1.38908 21.7978-1.38908C18.058-1.38908 17.9511-1.92334 17.9511-3.84667L17.9511-9.08243 23.4006-9.08243 23.4006-10.4715 17.9511-10.4715 17.9511-34.5668ZM15.0127-31.0404 15.0127-10.4715 2.13704-10.4715 15.0127-31.0404Z" transform="matrix(1 0 0 1.00575 178.99 321.068)"/><path d="M16.8558 7.17815C15.1254 9.6136 12.6258 11.7927 9.4854 11.7927 8.71632 11.7927 5.63997 11.6645 4.67863 8.71632 4.8709 8.78042 5.19134 8.78042 5.31951 8.78042 7.24225 8.78042 8.52405 7.11405 8.52405 5.63997 8.52405 4.16589 7.30632 3.65316 6.34497 3.65316 5.31951 3.65316 3.07635 4.42226 3.07635 7.56268 3.07635 10.8313 5.83224 13.0745 9.4854 13.0745 15.8945 13.0745 22.3676 7.17815 24.1622 0.0640905L30.4432-24.9312C30.507-25.2517 30.6353-25.6362 30.6353-26.0207 30.6353-26.982 29.8663-27.623 28.905-27.623 28.3281-27.623 26.982-27.3668 26.4695-25.444L21.7267-6.60134C21.4063-5.4477 21.4063-5.31951 20.8935-4.61453 19.6117-2.81999 17.4967-0.640907 14.4204-0.640907 10.8313-0.640907 10.5109-4.16589 10.5109-5.89634 10.5109-9.5495 12.2413-14.4845 13.9718-19.099 14.6768-20.9576 15.0613-21.8549 15.0613-23.1367 15.0613-25.8285 13.1386-28.264 9.99813-28.264 4.10179-28.264 1.73045-18.9708 1.73045-18.4581 1.73045-18.2017 1.98681-17.8813 2.43544-17.8813 3.01225-17.8813 3.07635-18.1376 3.33272-19.0349 4.8709-24.4185 7.30632-26.982 9.80586-26.982 10.3827-26.982 11.4722-26.982 11.4722-24.8672 11.4722-23.2008 10.7672-21.3422 9.80586-18.9067 6.66541-10.5109 6.66541-8.39586 6.66541-6.85771 6.66541-0.769088 11.0236 0.640907 14.2281 0.640907 16.0867 0.640907 18.394 0.0640905 20.6372-2.30726L20.7013-2.24317C19.7399 1.53817 19.099 4.0377 16.8558 7.17815Z" transform="matrix(1 0 0 1.00575 204.781 344.46)"/><path d="M199.865 222.854 293.925 222.854 293.925 225.417 199.865 225.417Z" transform="matrix(1 0 0 1.00575 -54.8648 146.529)"/><path d="M32.2376-42.8765C32.3017-43.133 32.4297-43.5175 32.4297-43.8379 32.4297-44.4788 31.789-44.4788 31.6607-44.4788 31.5966-44.4788 28.4563-44.2226 28.1357-44.1585 27.0461-44.0943 26.0848-43.9661 24.9312-43.902 23.329-43.774 22.8803-43.7099 22.8803-42.5561 22.8803-41.9152 23.3931-41.9152 24.2903-41.9152 27.4309-41.9152 27.4947-41.3383 27.4947-40.6976 27.4947-40.3131 27.3668-39.8004 27.3026-39.608L23.3931-24.034C22.6881-25.7003 20.9576-28.264 17.6249-28.264 10.3827-28.264 2.56362-18.9067 2.56362-9.42133 2.56362-3.07635 6.28088 0.640907 10.639 0.640907 14.164 0.640907 17.1763-2.11499 18.9708-4.22999 19.6117-0.448633 22.624 0.640907 24.5467 0.640907 26.4695 0.640907 28.0075-0.512724 29.1612-2.81999 30.1867-4.99907 31.0839-8.90859 31.0839-9.16496 31.0839-9.4854 30.8276-9.74177 30.4432-9.74177 29.8663-9.74177 29.8022-9.42133 29.5457-8.45996 28.5843-4.67863 27.3668-0.640907 24.739-0.640907 22.8803-0.640907 22.7522-2.30726 22.7522-3.58906 22.7522-3.84543 22.7522-5.19134 23.2008-6.98588L32.2376-42.8765ZM19.2913-7.62678C18.9708-6.53724 18.9708-6.40905 18.0736-5.19134 16.6635-3.39679 13.8436-0.640907 10.8313-0.640907 8.20359-0.640907 6.72951-3.01225 6.72951-6.79361 6.72951-10.3186 8.71632-17.4967 9.93403-20.1885 12.1131-24.6749 15.1254-26.982 17.6249-26.982 21.8549-26.982 22.6881-21.7267 22.6881-21.214 22.6881-21.1499 22.4958-20.3167 22.4317-20.1885L19.2913-7.62678Z" transform="matrix(1 0 0 1.00575 145 434.233)"/><path d="M30.379-26.1489C28.3281-25.7644 27.5589-24.2263 27.5589-23.0085 27.5589-21.4703 28.7767-20.9576 29.6739-20.9576 31.5966-20.9576 32.9425-22.624 32.9425-24.3544 32.9425-27.0461 29.8663-28.264 27.1744-28.264 23.2649-28.264 21.0858-24.4185 20.509-23.2008 19.0349-28.0075 15.0613-28.264 13.9077-28.264 7.37042-28.264 3.90953-19.8681 3.90953-18.4581 3.90953-18.2017 4.16589-17.8813 4.61453-17.8813 5.12724-17.8813 5.25543-18.2658 5.3836-18.5222 7.56268-25.6362 11.8568-26.982 13.7154-26.982 16.5995-26.982 17.1763-24.2903 17.1763-22.7522 17.1763-21.3422 16.7917-19.8681 16.0226-16.7917L13.8436-8.01132C12.8822-4.16589 11.0236-0.640907 7.62678-0.640907 7.30632-0.640907 5.70407-0.640907 4.35816-1.47408 6.66541-1.92272 7.17815-3.84543 7.17815-4.61453 7.17815-5.89634 6.21678-6.66541 4.99907-6.66541 3.46089-6.66541 1.79454-5.31951 1.79454-3.26862 1.79454-0.576814 4.8068 0.640907 7.56268 0.640907 10.639 0.640907 12.8181-1.79454 14.164-4.42226 15.1895-0.640907 18.394 0.640907 20.7653 0.640907 27.3026 0.640907 30.7635-7.75495 30.7635-9.16496 30.7635-9.4854 30.507-9.74177 30.1225-9.74177 29.5457-9.74177 29.4816-9.42133 29.2894-8.90859 27.5589-3.26862 23.8417-0.640907 20.9576-0.640907 18.7145-0.640907 17.4967-2.30726 17.4967-4.93497 17.4967-6.34497 17.7531-7.37042 18.7786-11.6004L21.0217-20.3167C21.9831-24.1622 24.1622-26.982 27.1103-26.982 27.2385-26.982 29.0329-26.982 30.379-26.1489Z" transform="matrix(1 0 0 1.00575 177.609 434.233)"/><path d="M17.9511-34.5668C17.9511-35.6887 17.8977-35.7419 16.936-35.7419L1.06852-10.4715 1.06852-9.08243 14.8524-9.08243 14.8524-3.84667C14.8524-1.92334 14.7456-1.38908 11.0058-1.38908L9.99066-1.38908 9.99066 0C11.7003-0.106852 14.5853-0.106852 16.4018-0.106852 18.2183-0.106852 21.1033-0.106852 22.8129 0L22.8129-1.38908 21.7978-1.38908C18.058-1.38908 17.9511-1.92334 17.9511-3.84667L17.9511-9.08243 23.4006-9.08243 23.4006-10.4715 17.9511-10.4715 17.9511-34.5668ZM15.0127-31.0404 15.0127-10.4715 2.13704-10.4715 15.0127-31.0404Z" transform="matrix(1 0 0 1.00575 213.27 415.614)"/><path d="M24.1621-14.869 41.1459-14.869C42.0432-14.869 43.1329-14.869 43.1329-15.9585 43.1329-17.1121 42.1074-17.1121 41.1459-17.1121L24.1621-17.1121 24.1621-34.0962C24.1621-34.9932 24.1621-36.0829 23.0725-36.0829 21.9189-36.0829 21.9189-35.0574 21.9189-34.0962L21.9189-17.1121 4.93495-17.1121C4.0377-17.1121 2.94816-17.1121 2.94816-16.0226 2.94816-14.869 3.97361-14.869 4.93495-14.869L21.9189-14.869 21.9189 2.11498C21.9189 3.01225 21.9189 4.10178 23.0084 4.10178 24.1621 4.10178 24.1621 3.07634 24.1621 2.11498L24.1621-14.869Z" transform="matrix(1 0 0 1.00575 256.393 388.067)"/><path d="M13.2027-18.7786C13.3309-19.1631 14.9331-22.3676 17.3044-24.4185 18.9708-25.9568 21.1499-26.982 23.6494-26.982 26.213-26.982 27.1103-25.0594 27.1103-22.4958 27.1103-22.1112 27.1103-20.8294 26.3413-17.8172L24.739-11.2158C24.2263-9.29313 23.0085-4.55043 22.8803-3.84543 22.624-2.88408 22.2394-1.21772 22.2394-0.961359 22.2394-0.0640905 22.9444 0.640907 23.9058 0.640907 25.8285 0.640907 26.1489-0.833179 26.7258-3.14045L30.5711-18.4581C30.6994-18.9708 34.032-26.982 41.0821-26.982 43.6457-26.982 44.543-25.0594 44.543-22.4958 44.543-18.9067 42.0434-11.9208 40.6335-8.07542 40.0566-6.53724 39.7362-5.70407 39.7362-4.55043 39.7362-1.66635 41.7231 0.640907 44.7995 0.640907 50.7596 0.640907 53.0029-8.78042 53.0029-9.16496 53.0029-9.4854 52.7464-9.74177 52.362-9.74177 51.7851-9.74177 51.7212-9.5495 51.4006-8.45996 49.9265-3.33272 47.5552-0.640907 44.9916-0.640907 44.3506-0.640907 43.3251-0.704998 43.3251-2.75589 43.3251-4.42226 44.0943-6.47314 44.3506-7.17815 45.5043-10.2545 48.3883-17.8172 48.3883-21.5344 48.3883-25.3799 46.1453-28.264 41.2744-28.264 36.9802-28.264 33.5193-25.8285 30.9556-22.0472 30.7635-25.5081 28.6485-28.264 23.8417-28.264 18.1376-28.264 15.1254-24.2263 13.9718-22.624 13.7795-26.2772 11.1518-28.264 8.33179-28.264 6.47314-28.264 4.99907-27.3668 3.78136-24.9312 2.62772-22.624 1.73045-18.7145 1.73045-18.4581 1.73045-18.2017 1.98681-17.8813 2.43544-17.8813 2.94816-17.8813 3.01225-17.9454 3.39679-19.4195 4.35816-23.2008 5.57587-26.982 8.13952-26.982 9.6136-26.982 10.1263-25.9568 10.1263-24.034 10.1263-22.624 9.4854-20.1244 9.03679-18.1376L7.24225-11.2158C6.98588-9.99813 6.28088-7.11405 5.96044-5.96044 5.5118-4.29406 4.8068-1.28181 4.8068-0.961359 4.8068-0.0640905 5.5118 0.640907 6.47314 0.640907 7.24225 0.640907 8.13952 0.256362 8.65222-0.704998 8.78042-1.02545 9.35723-3.26862 9.67769-4.55043L11.0877-10.3186 13.2027-18.7786Z" transform="matrix(1 0 0 1.00575 316.77 388.067)"/><path d="M32.2376-42.8765C32.3017-43.133 32.4297-43.5175 32.4297-43.8379 32.4297-44.4788 31.789-44.4788 31.6607-44.4788 31.5966-44.4788 28.4563-44.2226 28.1357-44.1585 27.0461-44.0943 26.0848-43.9661 24.9312-43.902 23.329-43.774 22.8803-43.7099 22.8803-42.5561 22.8803-41.9152 23.3931-41.9152 24.2903-41.9152 27.4309-41.9152 27.4947-41.3383 27.4947-40.6976 27.4947-40.3131 27.3668-39.8004 27.3026-39.608L23.3931-24.034C22.6881-25.7003 20.9576-28.264 17.6249-28.264 10.3827-28.264 2.56362-18.9067 2.56362-9.42133 2.56362-3.07635 6.28088 0.640907 10.639 0.640907 14.164 0.640907 17.1763-2.11499 18.9708-4.22999 19.6117-0.448633 22.624 0.640907 24.5467 0.640907 26.4695 0.640907 28.0075-0.512724 29.1612-2.81999 30.1867-4.99907 31.0839-8.90859 31.0839-9.16496 31.0839-9.4854 30.8276-9.74177 30.4432-9.74177 29.8663-9.74177 29.8022-9.42133 29.5457-8.45996 28.5843-4.67863 27.3668-0.640907 24.739-0.640907 22.8803-0.640907 22.7522-2.30726 22.7522-3.58906 22.7522-3.84543 22.7522-5.19134 23.2008-6.98588L32.2376-42.8765ZM19.2913-7.62678C18.9708-6.53724 18.9708-6.40905 18.0736-5.19134 16.6635-3.39679 13.8436-0.640907 10.8313-0.640907 8.20359-0.640907 6.72951-3.01225 6.72951-6.79361 6.72951-10.3186 8.71632-17.4967 9.93403-20.1885 12.1131-24.6749 15.1254-26.982 17.6249-26.982 21.8549-26.982 22.6881-21.7267 22.6881-21.214 22.6881-21.1499 22.4958-20.3167 22.4317-20.1885L19.2913-7.62678Z" transform="matrix(1 0 0 1.00575 374.754 344.46)"/><path d="M22.2786-8.28103 21.317-8.28103C20.7827-4.48778 20.3553-3.84667 20.1416-3.52613 19.8745-3.09872 16.0278-3.09872 15.2798-3.09872L5.02205-3.09872C6.94539-5.18234 10.6852-8.97556 15.2264-13.3565 18.4854-16.4552 22.2786-20.0882 22.2786-25.3774 22.2786-31.6817 17.2566-35.3145 11.6469-35.3145 5.77-35.3145 2.19047-30.1324 2.19047-25.3239 2.19047-23.2403 3.73983-22.9732 4.38094-22.9732 4.91519-22.9732 6.51798-23.2937 6.51798-25.1637 6.51798-26.8199 5.12889-27.3006 4.38094-27.3006 4.06037-27.3006 3.73983-27.2473 3.52613-27.1405 4.5412-31.6817 7.63992-33.9255 10.8989-33.9255 15.547-33.9255 18.5923-30.2392 18.5923-25.3774 18.5923-20.7293 15.8675-16.7223 12.8222-13.2496L2.19047-1.2288 2.19047 0 20.9964 0 22.2786-8.28103Z" transform="matrix(1 0 0 1.00575 407.361 321.068)"/><path d="M16.8558 7.17815C15.1254 9.6136 12.6258 11.7927 9.4854 11.7927 8.71632 11.7927 5.63997 11.6645 4.67863 8.71632 4.8709 8.78042 5.19134 8.78042 5.31951 8.78042 7.24225 8.78042 8.52405 7.11405 8.52405 5.63997 8.52405 4.16589 7.30632 3.65316 6.34497 3.65316 5.31951 3.65316 3.07635 4.42226 3.07635 7.56268 3.07635 10.8313 5.83224 13.0745 9.4854 13.0745 15.8945 13.0745 22.3676 7.17815 24.1622 0.0640905L30.4432-24.9312C30.507-25.2517 30.6353-25.6362 30.6353-26.0207 30.6353-26.982 29.8663-27.623 28.905-27.623 28.3281-27.623 26.982-27.3668 26.4695-25.444L21.7267-6.60134C21.4063-5.4477 21.4063-5.31951 20.8935-4.61453 19.6117-2.81999 17.4967-0.640907 14.4204-0.640907 10.8313-0.640907 10.5109-4.16589 10.5109-5.89634 10.5109-9.5495 12.2413-14.4845 13.9718-19.099 14.6768-20.9576 15.0613-21.8549 15.0613-23.1367 15.0613-25.8285 13.1386-28.264 9.99813-28.264 4.10179-28.264 1.73045-18.9708 1.73045-18.4581 1.73045-18.2017 1.98681-17.8813 2.43544-17.8813 3.01225-17.8813 3.07635-18.1376 3.33272-19.0349 4.8709-24.4185 7.30632-26.982 9.80586-26.982 10.3827-26.982 11.4722-26.982 11.4722-24.8672 11.4722-23.2008 10.7672-21.3422 9.80586-18.9067 6.66541-10.5109 6.66541-8.39586 6.66541-6.85771 6.66541-0.769088 11.0236 0.640907 14.2281 0.640907 16.0867 0.640907 18.394 0.0640905 20.6372-2.30726L20.7013-2.24317C19.7399 1.53817 19.099 4.0377 16.8558 7.17815Z" transform="matrix(1 0 0 1.00575 433.153 344.46)"/><path d="M429.618 222.854 520.915 222.854 520.915 225.417 429.618 225.417Z" transform="matrix(1 0 0 1.00575 -54.8648 146.529)"/><path d="M32.2376-42.8765C32.3017-43.133 32.4297-43.5175 32.4297-43.8379 32.4297-44.4788 31.789-44.4788 31.6607-44.4788 31.5966-44.4788 28.4563-44.2226 28.1357-44.1585 27.0461-44.0943 26.0848-43.9661 24.9312-43.902 23.329-43.774 22.8803-43.7099 22.8803-42.5561 22.8803-41.9152 23.3931-41.9152 24.2903-41.9152 27.4309-41.9152 27.4947-41.3383 27.4947-40.6976 27.4947-40.3131 27.3668-39.8004 27.3026-39.608L23.3931-24.034C22.6881-25.7003 20.9576-28.264 17.6249-28.264 10.3827-28.264 2.56362-18.9067 2.56362-9.42133 2.56362-3.07635 6.28088 0.640907 10.639 0.640907 14.164 0.640907 17.1763-2.11499 18.9708-4.22999 19.6117-0.448633 22.624 0.640907 24.5467 0.640907 26.4695 0.640907 28.0075-0.512724 29.1612-2.81999 30.1867-4.99907 31.0839-8.90859 31.0839-9.16496 31.0839-9.4854 30.8276-9.74177 30.4432-9.74177 29.8663-9.74177 29.8022-9.42133 29.5457-8.45996 28.5843-4.67863 27.3668-0.640907 24.739-0.640907 22.8803-0.640907 22.7522-2.30726 22.7522-3.58906 22.7522-3.84543 22.7522-5.19134 23.2008-6.98588L32.2376-42.8765ZM19.2913-7.62678C18.9708-6.53724 18.9708-6.40905 18.0736-5.19134 16.6635-3.39679 13.8436-0.640907 10.8313-0.640907 8.20359-0.640907 6.72951-3.01225 6.72951-6.79361 6.72951-10.3186 8.71632-17.4967 9.93403-20.1885 12.1131-24.6749 15.1254-26.982 17.6249-26.982 21.8549-26.982 22.6881-21.7267 22.6881-21.214 22.6881-21.1499 22.4958-20.3167 22.4317-20.1885L19.2913-7.62678Z" transform="matrix(1 0 0 1.00575 379.871 434.233)"/><path d="M12.8822-25.7644 18.7786-25.7644C19.9963-25.7644 20.6372-25.7644 20.6372-26.9181 20.6372-27.623 20.2526-27.623 18.9708-27.623L13.3309-27.623 15.7022-36.9802C15.9586-37.8774 15.9586-38.0057 15.9586-38.4543 15.9586-39.4797 15.1254-40.0566 14.2922-40.0566 13.7795-40.0566 12.3054-39.8642 11.7927-37.8136L9.29313-27.623 3.26862-27.623C1.98681-27.623 1.40999-27.623 1.40999-26.4054 1.40999-25.7644 1.85863-25.7644 3.07635-25.7644L8.78042-25.7644 4.55043-8.84449C4.0377-6.60134 3.84543-5.96044 3.84543-5.12724 3.84543-2.11499 5.96044 0.640907 9.5495 0.640907 16.0226 0.640907 19.4835-8.71632 19.4835-9.16496 19.4835-9.5495 19.2272-9.74177 18.8426-9.74177 18.7145-9.74177 18.4581-9.74177 18.3299-9.4854 18.2658-9.42133 18.2017-9.35723 17.7531-8.33179 16.4072-5.12724 13.459-0.640907 9.74177-0.640907 7.81905-0.640907 7.69088-2.24317 7.69088-3.65316 7.69088-3.71726 7.69088-4.93497 7.88315-5.70407L12.8822-25.7644Z" transform="matrix(1 0 0 1.00575 412.481 434.233)"/><path d="M22.2786-8.28103 21.317-8.28103C20.7827-4.48778 20.3553-3.84667 20.1416-3.52613 19.8745-3.09872 16.0278-3.09872 15.2798-3.09872L5.02205-3.09872C6.94539-5.18234 10.6852-8.97556 15.2264-13.3565 18.4854-16.4552 22.2786-20.0882 22.2786-25.3774 22.2786-31.6817 17.2566-35.3145 11.6469-35.3145 5.77-35.3145 2.19047-30.1324 2.19047-25.3239 2.19047-23.2403 3.73983-22.9732 4.38094-22.9732 4.91519-22.9732 6.51798-23.2937 6.51798-25.1637 6.51798-26.8199 5.12889-27.3006 4.38094-27.3006 4.06037-27.3006 3.73983-27.2473 3.52613-27.1405 4.5412-31.6817 7.63992-33.9255 10.8989-33.9255 15.547-33.9255 18.5923-30.2392 18.5923-25.3774 18.5923-20.7293 15.8675-16.7223 12.8222-13.2496L2.19047-1.2288 2.19047 0 20.9964 0 22.2786-8.28103Z" transform="matrix(1 0 0 1.00575 435.141 415.614)"/><path d="M41.2101-20.573C42.1713-20.573 43.1329-20.573 43.1329-21.6625 43.1329-22.8162 42.0432-22.8162 40.9539-22.8162L5.12722-22.8162C4.0377-22.8162 2.94816-22.8162 2.94816-21.6625 2.94816-20.573 3.9095-20.573 4.87086-20.573L41.2101-20.573ZM40.9539-9.16492C42.0432-9.16492 43.1329-9.16492 43.1329-10.3186 43.1329-11.4081 42.1713-11.4081 41.2101-11.4081L4.87086-11.4081C3.9095-11.4081 2.94816-11.4081 2.94816-10.3186 2.94816-9.16492 4.0377-9.16492 5.12722-9.16492L40.9539-9.16492Z" transform="matrix(1 0 0 1.00575 486.945 388.067)"/><path d="M26.0207-44.2222C25.508-45.3119 25.2516-45.3119 24.7389-45.3119 23.9698-45.3119 23.9057-45.1838 23.4571-44.2864L2.6918-1.08954C2.6277-0.961356 2.37134-0.384542 2.37134-0.320453 2.37134-0.0640919 2.43543 0 3.58906 0L45.8246 0C46.9782 0 47.0424-0.0640919 47.0424-0.320453 47.0424-0.384542 46.7858-0.961356 46.722-1.08954L26.0207-44.2222ZM23.1366-40.4412 40.8897-3.58906 5.3195-3.58906 23.1366-40.4412Z" transform="matrix(1 0 0 1.00575 550.883 388.067)"/><path d="M2.75589 8.13952C2.30726 10.0622 2.0509 10.5749-0.576814 10.5749-1.3459 10.5749-1.98681 10.5749-1.98681 11.7927-1.98681 11.9208-1.92272 12.4336-1.21772 12.4336-0.384543 12.4336 0.512724 12.3054 1.3459 12.3054L4.10179 12.3054C5.4477 12.3054 8.71632 12.4336 10.0622 12.4336 10.4468 12.4336 11.2158 12.4336 11.2158 11.2799 11.2158 10.5749 10.7672 10.5749 9.67769 10.5749 6.72951 10.5749 6.53724 10.1263 6.53724 9.6136 6.53724 8.84449 9.42133-2.17908 9.80586-3.65316 10.5109-1.85863 12.2413 0.640907 15.574 0.640907 22.8162 0.640907 30.6353-8.78042 30.6353-18.2017 30.6353-24.0981 27.3026-28.264 22.4958-28.264 18.394-28.264 14.9331-24.2903 14.2281-23.3931 13.7154-26.5975 11.2158-28.264 8.65222-28.264 6.79361-28.264 5.31951-27.3668 4.10179-24.9312 2.94816-22.624 2.0509-18.7145 2.0509-18.4581 2.0509-18.2017 2.30726-17.8813 2.75589-17.8813 3.26862-17.8813 3.33272-17.9454 3.71726-19.4195 4.67863-23.2008 5.89634-26.982 8.45996-26.982 9.93403-26.982 10.4468-25.9568 10.4468-24.034 10.4468-22.4958 10.2545-21.8549 9.99813-20.7013L2.75589 8.13952ZM13.8436-19.9963C14.2922-21.7908 16.0867-23.6494 17.1122-24.5467 17.8172-25.1876 19.9322-26.982 22.3676-26.982 25.1876-26.982 26.4695-24.1622 26.4695-20.8294 26.4695-17.7531 24.6749-10.5109 23.0726-7.17815 21.4703-3.71726 18.5222-0.640907 15.574-0.640907 11.2158-0.640907 10.5109-6.1527 10.5109-6.40905 10.5109-6.60134 10.639-7.11405 10.7031-7.43451L13.8436-19.9963Z" transform="matrix(1 0 0 1.00575 600.364 388.067)"/></g></svg>