<svg width="487" height="150" xmlns="http://www.w3.org/2000/svg" xmlns:xlink="http://www.w3.org/1999/xlink" xml:space="preserve" overflow="hidden"><defs><clipPath id="clip0"><rect x="91" y="285" width="487" height="150"/></clipPath></defs><g clip-path="url(#clip0)" transform="translate(-91 -285)"><path d="M23.4668-39.4318C24.0439-41.8044 24.3003-41.9324 26.8009-41.9324L35.1361-41.9324C42.3812-41.9324 42.3812-35.7773 42.3812-35.2002 42.3812-30.0066 37.1879-23.4027 28.7244-23.4027L19.4915-23.4027 23.4668-39.4318ZM34.3026-22.8898C41.2914-24.1721 47.639-29.0449 47.639-34.9436 47.639-39.9448 43.2149-43.792 35.9695-43.792L15.3881-43.792C14.1699-43.792 13.5928-43.792 13.5928-42.5737 13.5928-41.9324 14.1699-41.9324 15.1316-41.9324 19.0427-41.9324 19.0427-41.4195 19.0427-40.7143 19.0427-40.586 19.0427-40.2014 18.7863-39.2396L10.1305-4.74465C9.55343-2.50056 9.4252-1.85939 4.937-1.85939 3.71879-1.85939 3.07762-1.85939 3.07762-0.705288 3.07762 0 3.46231 0 4.74465 0L26.7368 0C36.5466 0 44.1125-7.43757 44.1125-13.9134 44.1125-19.171 39.496-22.3768 34.3026-22.8898ZM25.198-1.85939 16.5422-1.85939C15.6445-1.85939 15.5163-1.85939 15.1316-1.92351 14.4263-1.98763 14.3622-2.11586 14.3622-2.6288 14.3622-3.07762 14.4904-3.46231 14.6187-4.03936L19.1069-22.1203 31.1608-22.1203C38.7267-22.1203 38.7267-15.0675 38.7267-14.5545 38.7267-8.39931 33.1485-1.85939 25.198-1.85939Z" transform="matrix(1 0 0 1.00545 91.0002 388.07)"/><path d="M32.2509-42.8941C32.315-43.1507 32.4431-43.5354 32.4431-43.8559 32.4431-44.4971 31.8021-44.4971 31.6738-44.4971 31.6096-44.4971 28.4681-44.2408 28.1473-44.1766 27.0573-44.1125 26.0955-43.9842 24.9415-43.92 23.3386-43.792 22.8898-43.7278 22.8898-42.5737 22.8898-41.9324 23.4027-41.9324 24.3003-41.9324 27.4422-41.9324 27.5061-41.3553 27.5061-40.7143 27.5061-40.3297 27.378-39.8167 27.3139-39.6243L23.4027-24.0439C22.6974-25.7109 20.9663-28.2756 17.6322-28.2756 10.3869-28.2756 2.56468-18.9145 2.56468-9.4252 2.56468-3.07762 6.28346 0.641171 10.6434 0.641171 14.1699 0.641171 17.1833-2.11586 18.9786-4.23173 19.6198-0.448818 22.6333 0.641171 24.5568 0.641171 26.4804 0.641171 28.019-0.512935 29.1732-2.82115 30.1991-5.00112 31.0967-8.91226 31.0967-9.16873 31.0967-9.4893 30.8403-9.74577 30.4557-9.74577 29.8786-9.74577 29.8144-9.4252 29.5578-8.46344 28.5961-4.68055 27.378-0.641171 24.7491-0.641171 22.8898-0.641171 22.7615-2.30821 22.7615-3.59054 22.7615-3.84701 22.7615-5.19347 23.2103-6.98875L32.2509-42.8941ZM19.2992-7.62992C18.9786-6.53993 18.9786-6.41168 18.081-5.19347 16.6704-3.39819 13.8493-0.641171 10.8358-0.641171 8.20696-0.641171 6.73228-3.01349 6.73228-6.7964 6.73228-10.3228 8.71991-17.5039 9.93812-20.1968 12.1181-24.685 15.1316-26.9931 17.6322-26.9931 21.8639-26.9931 22.6974-21.7356 22.6974-21.2227 22.6974-21.1586 22.5051-20.3251 22.4409-20.1968L19.2992-7.62992Z" transform="matrix(1 0 0 1.00545 146.404 344.458)"/><path d="M17.9585-34.581C17.9585-35.7034 17.9051-35.7566 16.943-35.7566L1.06896-10.4758 1.06896-9.08616 14.8585-9.08616 14.8585-3.84825C14.8585-1.92413 14.7517-1.38965 11.0103-1.38965L9.99477-1.38965 9.99477 0C11.7051-0.106896 14.5913-0.106896 16.4085-0.106896 18.2258-0.106896 21.112-0.106896 22.8223 0L22.8223-1.38965 21.8068-1.38965C18.0654-1.38965 17.9585-1.92413 17.9585-3.84825L17.9585-9.08616 23.4102-9.08616 23.4102-10.4758 17.9585-10.4758 17.9585-34.581ZM15.0189-31.0532 15.0189-10.4758 2.13792-10.4758 15.0189-31.0532Z" transform="matrix(1 0 0 1.00545 179.027 321.064)"/><path d="M16.8627 7.1811C15.1316 9.61755 12.631 11.7975 9.4893 11.7975 8.71991 11.7975 5.64229 11.6693 4.68055 8.71991 4.8729 8.78403 5.19347 8.78403 5.32169 8.78403 7.24522 8.78403 8.52756 7.11698 8.52756 5.64229 8.52756 4.16761 7.30932 3.65466 6.34758 3.65466 5.32169 3.65466 3.07762 4.42408 3.07762 7.5658 3.07762 10.8358 5.83464 13.0799 9.4893 13.0799 15.901 13.0799 22.3768 7.1811 24.1721 0.0641168L30.4557-24.9415C30.5196-25.2621 30.6479-25.6468 30.6479-26.0314 30.6479-26.9931 29.8786-27.6344 28.9169-27.6344 28.3398-27.6344 26.9931-27.378 26.4804-25.4544L21.7356-6.60406C21.4151-5.44994 21.4151-5.32169 20.9021-4.61643 19.6198-2.82115 17.5039-0.641171 14.4263-0.641171 10.8358-0.641171 10.5152-4.16761 10.5152-5.89876 10.5152-9.55343 12.2463-14.4904 13.9775-19.1069 14.6828-20.9663 15.0675-21.8639 15.0675-23.1462 15.0675-25.8391 13.144-28.2756 10.0022-28.2756 4.10348-28.2756 1.73116-18.9786 1.73116-18.4657 1.73116-18.2092 1.98763-17.8886 2.43644-17.8886 3.01349-17.8886 3.07762-18.1451 3.33409-19.0427 4.8729-24.4286 7.30932-26.9931 9.8099-26.9931 10.3869-26.9931 11.4769-26.9931 11.4769-24.8774 11.4769-23.2103 10.7717-21.351 9.8099-18.9145 6.66816-10.5152 6.66816-8.39931 6.66816-6.86053 6.66816-0.769405 11.0281 0.641171 14.234 0.641171 16.0934 0.641171 18.4016 0.0641168 20.6457-2.30821L20.7098-2.24409C19.748 1.53881 19.1069 4.03936 16.8627 7.1811Z" transform="matrix(1 0 0 1.00545 204.828 344.458)"/><path d="M199.947 222.945 294.046 222.945 294.046 225.51 199.947 225.51Z" transform="matrix(1 0 0 1.00545 -54.9248 146.504)"/><path d="M32.2509-42.8941C32.315-43.1507 32.4431-43.5354 32.4431-43.8559 32.4431-44.4971 31.8021-44.4971 31.6738-44.4971 31.6096-44.4971 28.4681-44.2408 28.1473-44.1766 27.0573-44.1125 26.0955-43.9842 24.9415-43.92 23.3386-43.792 22.8898-43.7278 22.8898-42.5737 22.8898-41.9324 23.4027-41.9324 24.3003-41.9324 27.4422-41.9324 27.5061-41.3553 27.5061-40.7143 27.5061-40.3297 27.378-39.8167 27.3139-39.6243L23.4027-24.0439C22.6974-25.7109 20.9663-28.2756 17.6322-28.2756 10.3869-28.2756 2.56468-18.9145 2.56468-9.4252 2.56468-3.07762 6.28346 0.641171 10.6434 0.641171 14.1699 0.641171 17.1833-2.11586 18.9786-4.23173 19.6198-0.448818 22.6333 0.641171 24.5568 0.641171 26.4804 0.641171 28.019-0.512935 29.1732-2.82115 30.1991-5.00112 31.0967-8.91226 31.0967-9.16873 31.0967-9.4893 30.8403-9.74577 30.4557-9.74577 29.8786-9.74577 29.8144-9.4252 29.5578-8.46344 28.5961-4.68055 27.378-0.641171 24.7491-0.641171 22.8898-0.641171 22.7615-2.30821 22.7615-3.59054 22.7615-3.84701 22.7615-5.19347 23.2103-6.98875L32.2509-42.8941ZM19.2992-7.62992C18.9786-6.53993 18.9786-6.41168 18.081-5.19347 16.6704-3.39819 13.8493-0.641171 10.8358-0.641171 8.20696-0.641171 6.73228-3.01349 6.73228-6.7964 6.73228-10.3228 8.71991-17.5039 9.93812-20.1968 12.1181-24.685 15.1316-26.9931 17.6322-26.9931 21.8639-26.9931 22.6974-21.7356 22.6974-21.2227 22.6974-21.1586 22.5051-20.3251 22.4409-20.1968L19.2992-7.62992Z" transform="matrix(1 0 0 1.00545 145.022 434.242)"/><path d="M30.3915-26.1597C28.3398-25.775 27.5702-24.2362 27.5702-23.018 27.5702-21.4792 28.7886-20.9663 29.6861-20.9663 31.6096-20.9663 32.956-22.6333 32.956-24.3644 32.956-27.0573 29.8786-28.2756 27.1856-28.2756 23.2745-28.2756 21.0945-24.4286 20.5174-23.2103 19.0427-28.019 15.0675-28.2756 13.9134-28.2756 7.37345-28.2756 3.91113-19.8763 3.91113-18.4657 3.91113-18.2092 4.16761-17.8886 4.61643-17.8886 5.12935-17.8886 5.2576-18.2733 5.38582-18.5298 7.5658-25.6468 11.8617-26.9931 13.721-26.9931 16.6063-26.9931 17.1833-24.3003 17.1833-22.7615 17.1833-21.351 16.7986-19.8763 16.0292-16.7986L13.8493-8.01462C12.8875-4.16761 11.0281-0.641171 7.62992-0.641171 7.30932-0.641171 5.70642-0.641171 4.35995-1.47469 6.66816-1.92351 7.1811-3.84701 7.1811-4.61643 7.1811-5.89876 6.21934-6.66816 5.00112-6.66816 3.46231-6.66816 1.79527-5.32169 1.79527-3.26997 1.79527-0.577051 4.80877 0.641171 7.5658 0.641171 10.6434 0.641171 12.8234-1.79527 14.1699-4.42408 15.1957-0.641171 18.4016 0.641171 20.7739 0.641171 27.3139 0.641171 30.7762-7.75814 30.7762-9.16873 30.7762-9.4893 30.5196-9.74577 30.1349-9.74577 29.5578-9.74577 29.4937-9.4252 29.3015-8.91226 27.5702-3.26997 23.8515-0.641171 20.9663-0.641171 18.7222-0.641171 17.5039-2.30821 17.5039-4.937 17.5039-6.34758 17.7604-7.37345 18.7863-11.6052L21.0304-20.3251C21.9921-24.1721 24.1721-26.9931 27.1214-26.9931 27.2497-26.9931 29.0449-26.9931 30.3915-26.1597Z" transform="matrix(1 0 0 1.00545 177.644 434.242)"/><path d="M17.9585-34.581C17.9585-35.7034 17.9051-35.7566 16.943-35.7566L1.06896-10.4758 1.06896-9.08616 14.8585-9.08616 14.8585-3.84825C14.8585-1.92413 14.7517-1.38965 11.0103-1.38965L9.99477-1.38965 9.99477 0C11.7051-0.106896 14.5913-0.106896 16.4085-0.106896 18.2258-0.106896 21.112-0.106896 22.8223 0L22.8223-1.38965 21.8068-1.38965C18.0654-1.38965 17.9585-1.92413 17.9585-3.84825L17.9585-9.08616 23.4102-9.08616 23.4102-10.4758 17.9585-10.4758 17.9585-34.581ZM15.0189-31.0532 15.0189-10.4758 2.13792-10.4758 15.0189-31.0532Z" transform="matrix(1 0 0 1.00545 213.32 415.62)"/><path d="M24.172-14.8751 41.1628-14.8751C42.0605-14.8751 43.1506-14.8751 43.1506-15.9651 43.1506-17.1192 42.1248-17.1192 41.1628-17.1192L24.172-17.1192 24.172-34.1102C24.172-35.0076 24.172-36.0977 23.082-36.0977 21.9279-36.0977 21.9279-35.0719 21.9279-34.1102L21.9279-17.1192 4.93698-17.1192C4.03936-17.1192 2.94937-17.1192 2.94937-16.0292 2.94937-14.8751 3.97525-14.8751 4.93698-14.8751L21.9279-14.8751 21.9279 2.11585C21.9279 3.01349 21.9279 4.10347 23.0179 4.10347 24.172 4.10347 24.172 3.0776 24.172 2.11585L24.172-14.8751Z" transform="matrix(1 0 0 1.00545 256.461 388.07)"/><path d="M13.2081-18.7863C13.3363-19.171 14.9392-22.3768 17.3116-24.4286 18.9786-25.9675 21.1586-26.9931 23.6592-26.9931 26.2238-26.9931 27.1214-25.0697 27.1214-22.5051 27.1214-22.1203 27.1214-20.838 26.3521-17.8245L24.7491-11.2205C24.2362-9.29695 23.018-4.5523 22.8898-3.84701 22.6333-2.88527 22.2486-1.21822 22.2486-0.961755 22.2486-0.0641168 22.9539 0.641171 23.9156 0.641171 25.8391 0.641171 26.1597-0.833521 26.7368-3.14174L30.5837-18.4657C30.712-18.9786 34.046-26.9931 41.099-26.9931 43.6637-26.9931 44.5613-25.0697 44.5613-22.5051 44.5613-18.9145 42.0607-11.9258 40.6502-8.07874 40.0731-6.53993 39.7526-5.70642 39.7526-4.5523 39.7526-1.66704 41.7402 0.641171 44.8179 0.641171 50.7805 0.641171 53.0247-8.78403 53.0247-9.16873 53.0247-9.4893 52.7681-9.74577 52.3835-9.74577 51.8064-9.74577 51.7425-9.55343 51.4218-8.46344 49.9471-3.33409 47.5748-0.641171 45.0101-0.641171 44.3688-0.641171 43.3429-0.705288 43.3429-2.75702 43.3429-4.42408 44.1125-6.47581 44.3688-7.1811 45.523-10.2587 48.4082-17.8245 48.4082-21.5433 48.4082-25.3903 46.1643-28.2756 41.2914-28.2756 36.9954-28.2756 33.5331-25.8391 30.9684-22.0562 30.7762-25.5186 28.6602-28.2756 23.8515-28.2756 18.1451-28.2756 15.1316-24.2362 13.9775-22.6333 13.7852-26.288 11.1564-28.2756 8.33521-28.2756 6.47581-28.2756 5.00112-27.378 3.78291-24.9415 2.6288-22.6333 1.73116-18.7222 1.73116-18.4657 1.73116-18.2092 1.98763-17.8886 2.43644-17.8886 2.94937-17.8886 3.01349-17.9527 3.39819-19.4274 4.35995-23.2103 5.57817-26.9931 8.14287-26.9931 9.61755-26.9931 10.1305-25.9675 10.1305-24.0439 10.1305-22.6333 9.4893-20.1327 9.04051-18.1451L7.24522-11.2205C6.98875-10.0022 6.28346-7.11698 5.96289-5.96289 5.51407-4.29583 4.80877-1.28234 4.80877-0.961755 4.80877-0.0641168 5.51407 0.641171 6.47581 0.641171 7.24522 0.641171 8.14287 0.256467 8.65578-0.705288 8.78403-1.02587 9.36108-3.26997 9.68167-4.5523L11.0922-10.3228 13.2081-18.7863Z" transform="matrix(1 0 0 1.00545 316.863 388.07)"/><path d="M32.2509-42.8941C32.315-43.1507 32.4431-43.5354 32.4431-43.8559 32.4431-44.4971 31.8021-44.4971 31.6738-44.4971 31.6096-44.4971 28.4681-44.2408 28.1473-44.1766 27.0573-44.1125 26.0955-43.9842 24.9415-43.92 23.3386-43.792 22.8898-43.7278 22.8898-42.5737 22.8898-41.9324 23.4027-41.9324 24.3003-41.9324 27.4422-41.9324 27.5061-41.3553 27.5061-40.7143 27.5061-40.3297 27.378-39.8167 27.3139-39.6243L23.4027-24.0439C22.6974-25.7109 20.9663-28.2756 17.6322-28.2756 10.3869-28.2756 2.56468-18.9145 2.56468-9.4252 2.56468-3.07762 6.28346 0.641171 10.6434 0.641171 14.1699 0.641171 17.1833-2.11586 18.9786-4.23173 19.6198-0.448818 22.6333 0.641171 24.5568 0.641171 26.4804 0.641171 28.019-0.512935 29.1732-2.82115 30.1991-5.00112 31.0967-8.91226 31.0967-9.16873 31.0967-9.4893 30.8403-9.74577 30.4557-9.74577 29.8786-9.74577 29.8144-9.4252 29.5578-8.46344 28.5961-4.68055 27.378-0.641171 24.7491-0.641171 22.8898-0.641171 22.7615-2.30821 22.7615-3.59054 22.7615-3.84701 22.7615-5.19347 23.2103-6.98875L32.2509-42.8941ZM19.2992-7.62992C18.9786-6.53993 18.9786-6.41168 18.081-5.19347 16.6704-3.39819 13.8493-0.641171 10.8358-0.641171 8.20696-0.641171 6.73228-3.01349 6.73228-6.7964 6.73228-10.3228 8.71991-17.5039 9.93812-20.1968 12.1181-24.685 15.1316-26.9931 17.6322-26.9931 21.8639-26.9931 22.6974-21.7356 22.6974-21.2227 22.6974-21.1586 22.5051-20.3251 22.4409-20.1968L19.2992-7.62992Z" transform="matrix(1 0 0 1.00545 374.87 344.458)"/><path d="M22.2878-8.28444 21.3258-8.28444C20.7913-4.48963 20.3637-3.84825 20.1499-3.52758 19.8827-3.09999 16.0344-3.09999 15.2861-3.09999L5.02412-3.09999C6.94824-5.18447 10.6896-8.97925 15.2327-13.362 18.493-16.462 22.2878-20.0964 22.2878-25.3878 22.2878-31.6947 17.2637-35.3291 11.6517-35.3291 5.77238-35.3291 2.19137-30.1448 2.19137-25.3343 2.19137-23.2499 3.74137-22.9826 4.38274-22.9826 4.91721-22.9826 6.52066-23.3033 6.52066-25.174 6.52066-26.8309 5.131-27.3118 4.38274-27.3118 4.06204-27.3118 3.74137-27.2585 3.52758-27.1517 4.54307-31.6947 7.64306-33.9395 10.9034-33.9395 15.5534-33.9395 18.5999-30.2516 18.5999-25.3878 18.5999-20.7378 15.8741-16.7292 12.8275-13.2551L2.19137-1.2293 2.19137 0 21.0051 0 22.2878-8.28444Z" transform="matrix(1 0 0 1.00545 407.491 321.064)"/><path d="M16.8627 7.1811C15.1316 9.61755 12.631 11.7975 9.4893 11.7975 8.71991 11.7975 5.64229 11.6693 4.68055 8.71991 4.8729 8.78403 5.19347 8.78403 5.32169 8.78403 7.24522 8.78403 8.52756 7.11698 8.52756 5.64229 8.52756 4.16761 7.30932 3.65466 6.34758 3.65466 5.32169 3.65466 3.07762 4.42408 3.07762 7.5658 3.07762 10.8358 5.83464 13.0799 9.4893 13.0799 15.901 13.0799 22.3768 7.1811 24.1721 0.0641168L30.4557-24.9415C30.5196-25.2621 30.6479-25.6468 30.6479-26.0314 30.6479-26.9931 29.8786-27.6344 28.9169-27.6344 28.3398-27.6344 26.9931-27.378 26.4804-25.4544L21.7356-6.60406C21.4151-5.44994 21.4151-5.32169 20.9021-4.61643 19.6198-2.82115 17.5039-0.641171 14.4263-0.641171 10.8358-0.641171 10.5152-4.16761 10.5152-5.89876 10.5152-9.55343 12.2463-14.4904 13.9775-19.1069 14.6828-20.9663 15.0675-21.8639 15.0675-23.1462 15.0675-25.8391 13.144-28.2756 10.0022-28.2756 4.10348-28.2756 1.73116-18.9786 1.73116-18.4657 1.73116-18.2092 1.98763-17.8886 2.43644-17.8886 3.01349-17.8886 3.07762-18.1451 3.33409-19.0427 4.8729-24.4286 7.30932-26.9931 9.8099-26.9931 10.3869-26.9931 11.4769-26.9931 11.4769-24.8774 11.4769-23.2103 10.7717-21.351 9.8099-18.9145 6.66816-10.5152 6.66816-8.39931 6.66816-6.86053 6.66816-0.769405 11.0281 0.641171 14.234 0.641171 16.0934 0.641171 18.4016 0.0641168 20.6457-2.30821L20.7098-2.24409C19.748 1.53881 19.1069 4.03936 16.8627 7.1811Z" transform="matrix(1 0 0 1.00545 433.294 344.458)"/><path d="M429.795 222.945 521.13 222.945 521.13 225.51 429.795 225.51Z" transform="matrix(1 0 0 1.00545 -54.9248 146.504)"/><path d="M32.2509-42.8941C32.315-43.1507 32.4431-43.5354 32.4431-43.8559 32.4431-44.4971 31.8021-44.4971 31.6738-44.4971 31.6096-44.4971 28.4681-44.2408 28.1473-44.1766 27.0573-44.1125 26.0955-43.9842 24.9415-43.92 23.3386-43.792 22.8898-43.7278 22.8898-42.5737 22.8898-41.9324 23.4027-41.9324 24.3003-41.9324 27.4422-41.9324 27.5061-41.3553 27.5061-40.7143 27.5061-40.3297 27.378-39.8167 27.3139-39.6243L23.4027-24.0439C22.6974-25.7109 20.9663-28.2756 17.6322-28.2756 10.3869-28.2756 2.56468-18.9145 2.56468-9.4252 2.56468-3.07762 6.28346 0.641171 10.6434 0.641171 14.1699 0.641171 17.1833-2.11586 18.9786-4.23173 19.6198-0.448818 22.6333 0.641171 24.5568 0.641171 26.4804 0.641171 28.019-0.512935 29.1732-2.82115 30.1991-5.00112 31.0967-8.91226 31.0967-9.16873 31.0967-9.4893 30.8403-9.74577 30.4557-9.74577 29.8786-9.74577 29.8144-9.4252 29.5578-8.46344 28.5961-4.68055 27.378-0.641171 24.7491-0.641171 22.8898-0.641171 22.7615-2.30821 22.7615-3.59054 22.7615-3.84701 22.7615-5.19347 23.2103-6.98875L32.2509-42.8941ZM19.2992-7.62992C18.9786-6.53993 18.9786-6.41168 18.081-5.19347 16.6704-3.39819 13.8493-0.641171 10.8358-0.641171 8.20696-0.641171 6.73228-3.01349 6.73228-6.7964 6.73228-10.3228 8.71991-17.5039 9.93812-20.1968 12.1181-24.685 15.1316-26.9931 17.6322-26.9931 21.8639-26.9931 22.6974-21.7356 22.6974-21.2227 22.6974-21.1586 22.5051-20.3251 22.4409-20.1968L19.2992-7.62992Z" transform="matrix(1 0 0 1.00545 379.989 434.242)"/><path d="M12.8875-25.775 18.7863-25.775C20.0045-25.775 20.6457-25.775 20.6457-26.9292 20.6457-27.6344 20.261-27.6344 18.9786-27.6344L13.3363-27.6344 15.7087-36.9954C15.9651-37.893 15.9651-38.0213 15.9651-38.4701 15.9651-39.496 15.1316-40.0731 14.2981-40.0731 13.7852-40.0731 12.3104-39.8806 11.7975-37.8291L9.29695-27.6344 3.26997-27.6344C1.98763-27.6344 1.41057-27.6344 1.41057-26.4163 1.41057-25.775 1.85939-25.775 3.07762-25.775L8.78403-25.775 4.5523-8.84813C4.03936-6.60406 3.84701-5.96289 3.84701-5.12935 3.84701-2.11586 5.96289 0.641171 9.55343 0.641171 16.0292 0.641171 19.4915-8.71991 19.4915-9.16873 19.4915-9.55343 19.2351-9.74577 18.8504-9.74577 18.7222-9.74577 18.4657-9.74577 18.3375-9.4893 18.2733-9.4252 18.2092-9.36108 17.7604-8.33521 16.414-5.12935 13.4646-0.641171 9.74577-0.641171 7.82227-0.641171 7.69405-2.24409 7.69405-3.65466 7.69405-3.71879 7.69405-4.937 7.88639-5.70642L12.8875-25.775Z" transform="matrix(1 0 0 1.00545 412.613 434.242)"/><path d="M22.2878-8.28444 21.3258-8.28444C20.7913-4.48963 20.3637-3.84825 20.1499-3.52758 19.8827-3.09999 16.0344-3.09999 15.2861-3.09999L5.02412-3.09999C6.94824-5.18447 10.6896-8.97925 15.2327-13.362 18.493-16.462 22.2878-20.0964 22.2878-25.3878 22.2878-31.6947 17.2637-35.3291 11.6517-35.3291 5.77238-35.3291 2.19137-30.1448 2.19137-25.3343 2.19137-23.2499 3.74137-22.9826 4.38274-22.9826 4.91721-22.9826 6.52066-23.3033 6.52066-25.174 6.52066-26.8309 5.131-27.3118 4.38274-27.3118 4.06204-27.3118 3.74137-27.2585 3.52758-27.1517 4.54307-31.6947 7.64306-33.9395 10.9034-33.9395 15.5534-33.9395 18.5999-30.2516 18.5999-25.3878 18.5999-20.7378 15.8741-16.7292 12.8275-13.2551L2.19137-1.2293 2.19137 0 21.0051 0 22.2878-8.28444Z" transform="matrix(1 0 0 1.00545 435.283 415.62)"/><path d="M41.2271-20.5815C42.1887-20.5815 43.1506-20.5815 43.1506-21.6715 43.1506-22.8256 42.0605-22.8256 40.9707-22.8256L5.12933-22.8256C4.03936-22.8256 2.94937-22.8256 2.94937-21.6715 2.94937-20.5815 3.91111-20.5815 4.87287-20.5815L41.2271-20.5815ZM40.9707-9.16869C42.0605-9.16869 43.1506-9.16869 43.1506-10.3228 43.1506-11.4128 42.1887-11.4128 41.2271-11.4128L4.87287-11.4128C3.91111-11.4128 2.94937-11.4128 2.94937-10.3228 2.94937-9.16869 4.03936-9.16869 5.12933-9.16869L40.9707-9.16869Z" transform="matrix(1 0 0 1.00545 487.108 388.07)"/><path d="M26.929-20.5815C26.929-24.4926 26.8649-31.1608 24.172-36.2901 21.7997-40.7784 18.0168-42.3811 14.6827-42.3811 11.6051-42.3811 7.694-40.9707 5.25758-36.354 2.6929-31.5456 2.43644-25.5826 2.43644-20.5815 2.43644-16.9268 2.50055-11.3487 4.48818-6.47581 7.24521 0.128233 12.1822 1.02587 14.6827 1.02587 17.6321 1.02587 22.1203-0.192352 24.7491-6.28345 26.6726-10.7075 26.929-15.9009 26.929-20.5815ZM14.6827 0C10.5793 0 8.14283-3.52642 7.24521-8.39929 6.53992-12.1822 6.53992-17.6962 6.53992-21.2868 6.53992-26.2237 6.53992-30.3272 7.37343-34.2384 8.59165-39.6883 12.1822-41.3552 14.6827-41.3552 17.3115-41.3552 20.7097-39.624 21.9279-34.3665 22.7615-30.7119 22.8256-26.4161 22.8256-21.2868 22.8256-17.1192 22.8256-11.9898 22.0562-8.20693 20.7097-1.21822 16.9268 0 14.6827 0Z" transform="matrix(1 0 0 1.00545 551.072 388.07)"/></g></svg>